<svg version="1.1" xmlns="http://www.w3.org/2000/svg" xmlns:xlink="http://www.w3.org/1999/xlink" width="52.48083" height="52.48083" viewBox="0,0,52.48083,52.48083"><g transform="translate(-213.75959,-153.75958)"><g data-paper-data="{&quot;isPaintingLayer&quot;:true}" fill-rule="nonzero" stroke="none" stroke-linecap="butt" stroke-linejoin="miter" stroke-miterlimit="10" stroke-dasharray="" stroke-dashoffset="0" style="mix-blend-mode: normal"><path d="M213.75959,180c0,-7.49553 11.74823,-13.57185 26.24041,-13.57185c14.49218,0 26.24041,6.07632 26.24041,13.57185c0,7.49553 -11.74823,13.57185 -26.24041,13.57185c-14.49218,0 -26.24041,-6.07632 -26.24041,-13.57185z" fill="#9966ff" stroke-width="0"/><path d="M240,206.24042c-7.49552,0 -13.57184,-11.74823 -13.57184,-26.24042c0,-14.49219 6.07632,-26.24041 13.57184,-26.24042c7.49552,0 13.57185,11.74823 13.57185,26.24041c0,14.49219 -6.07632,26.24042 -13.57185,26.24042z" fill="#9966ff" stroke-width="0"/><path d="M217.01141,180c0,-12.69625 10.29234,-22.98859 22.98859,-22.98859c12.69625,0 22.98859,10.29234 22.98859,22.98859c0,12.69625 -10.29234,22.98859 -22.98859,22.98859c-12.69625,0 -22.98859,-10.29234 -22.98859,-22.98859z" fill="#9966ff" stroke-width="0"/><text transform="translate(234.6418,174.56633) rotate(90) scale(0.46442,0.46442)" font-size="40" xml:space="preserve" fill="#000000" fill-rule="nonzero" stroke="none" stroke-width="1" stroke-linecap="butt" stroke-linejoin="miter" stroke-miterlimit="10" stroke-dasharray="" stroke-dashoffset="0" font-family="Sans Serif" font-weight="normal" text-anchor="start" style="mix-blend-mode: normal"><tspan x="0" dy="0">:)</tspan></text></g></g></svg>